<?xml version="1.0" encoding="iso-8859-1"?>
<!-- Generator: Adobe Illustrator 18.0.0, SVG Export Plug-In . SVG Version: 6.00 Build 0)  -->
<!DOCTYPE svg PUBLIC "-//W3C//DTD SVG 1.1//EN" "http://www.w3.org/Graphics/SVG/1.1/DTD/svg11.dtd">
<svg version="1.1" id="Capa_1" xmlns="http://www.w3.org/2000/svg" xmlns:xlink="http://www.w3.org/1999/xlink" x="0px" y="0px"
	 viewBox="0 0 465.3 465.3" style="enable-background:new 0 0 465.3 465.3;" xml:space="preserve">
<path d="M349.251,261.607c-1.769-1.768-4.238-2.665-6.717-2.46c-2.019,0.168-49.807,4.499-82.59,37.281
	c-8.571,8.571-15.194,18.169-20.31,27.706v-61.861c15.562-5.84,26.809-27.454,26.809-53.972c0-6.569-0.697-12.832-1.972-18.635
	c4.47,4.069,9.575,7.802,15.156,11.024c12.654,7.306,25.729,10.912,37.066,10.912c12.827,0,23.434-4.618,28.688-13.72
	c5.173-8.96,4.293-20.27-2.478-31.847c-5.896-10.081-15.829-19.493-27.969-26.502c-5.689-3.285-11.463-5.813-17.126-7.61
	c5.664-1.798,11.437-4.328,17.126-7.612c12.14-7.009,22.072-16.421,27.969-26.502c6.771-11.577,7.65-22.887,2.478-31.848
	c-9.899-17.146-38.781-18.379-65.755-2.807c-5.58,3.222-10.686,6.955-15.156,11.024c1.275-5.803,1.972-12.066,1.972-18.635
	C266.444,24.397,250.934,0,231.135,0s-35.309,24.397-35.309,55.542c0,6.569,0.697,12.832,1.972,18.635
	c-4.47-4.069-9.575-7.802-15.156-11.024c-26.972-15.571-55.855-14.34-65.755,2.807c-5.173,8.96-4.293,20.27,2.478,31.847
	c5.896,10.081,15.829,19.493,27.969,26.502c5.69,3.285,11.463,5.815,17.127,7.613c-5.664,1.798-11.437,4.325-17.127,7.61
	c-12.14,7.009-22.072,16.421-27.969,26.502c-6.771,11.577-7.65,22.887-2.478,31.848c5.256,9.103,15.858,13.72,28.688,13.719
	c11.337,0,24.413-3.607,37.066-10.912c5.58-3.222,10.686-6.955,15.156-11.024c-1.275,5.803-1.972,12.066-1.972,18.635
	c0,26.518,11.247,48.132,26.809,53.972V456.8c0,4.694,3.806,8.5,8.5,8.5s8.5-3.806,8.5-8.5v-69.658
	c15.227-2.568,49.482-10.916,74.796-36.229c32.781-32.782,37.112-80.571,37.28-82.589
	C351.919,265.833,351.019,263.375,349.251,261.607z M210.297,131.921c0-11.49,9.348-20.838,20.838-20.838
	s20.838,9.348,20.838,20.838s-9.348,20.838-20.838,20.838S210.297,143.411,210.297,131.921z M328.23,174.617
	c3.503,5.99,4.389,11.372,2.43,14.765c-4.321,7.485-23.43,7.614-42.532-3.415c-9.485-5.476-17.429-12.897-21.794-20.362
	c-3.503-5.99-4.389-11.371-2.43-14.764c1.967-3.407,6.997-5.29,13.698-5.29c8.019,0,18.428,2.697,28.834,8.705
	C315.921,159.731,323.864,167.153,328.23,174.617z M288.127,77.876c10.407-6.009,20.815-8.705,28.834-8.705
	c6.699,0,11.731,1.883,13.698,5.29c1.959,3.393,1.073,8.775-2.43,14.765c-4.365,7.464-12.309,14.886-21.794,20.362
	c-19.103,11.029-38.212,10.9-42.532,3.415c-1.959-3.393-1.073-8.775,2.43-14.765C270.698,90.773,278.642,83.352,288.127,77.876z
	 M231.135,17c8.643,0,18.309,16.483,18.309,38.542c0,22.059-9.666,38.542-18.309,38.542s-18.309-16.483-18.309-38.542
	C212.826,33.483,222.492,17,231.135,17z M134.04,89.225c-3.503-5.99-4.389-11.372-2.43-14.765c1.967-3.407,6.997-5.29,13.698-5.29
	c8.019,0,18.428,2.697,28.834,8.705c9.485,5.476,17.429,12.897,21.794,20.362c3.503,5.99,4.389,11.371,2.43,14.764
	c-4.32,7.485-23.43,7.614-42.532-3.415C146.349,104.111,138.405,96.689,134.04,89.225z M174.143,185.966
	c-19.103,11.029-38.212,10.899-42.532,3.415c-1.959-3.393-1.073-8.775,2.43-14.765c4.365-7.464,12.309-14.886,21.794-20.362
	c10.407-6.009,20.815-8.705,28.834-8.705c6.699,0,11.731,1.883,13.698,5.29c1.959,3.393,1.073,8.775-2.43,14.765
	C191.571,173.069,183.628,180.49,174.143,185.966z M231.135,169.759c8.643,0,18.309,16.483,18.309,38.542
	c0,22.059-9.666,38.542-18.309,38.542s-18.309-16.483-18.309-38.542C212.826,186.241,222.492,169.759,231.135,169.759z
	 M302.409,338.893c-19.552,19.552-46.256,27.518-61.028,30.585c3.068-14.777,11.034-41.479,30.585-61.029
	c19.552-19.552,46.256-27.518,61.028-30.585C329.926,292.641,321.96,319.343,302.409,338.893z"/>
<g>
</g>
<g>
</g>
<g>
</g>
<g>
</g>
<g>
</g>
<g>
</g>
<g>
</g>
<g>
</g>
<g>
</g>
<g>
</g>
<g>
</g>
<g>
</g>
<g>
</g>
<g>
</g>
<g>
</g>
</svg>
