<?xml version="1.0" encoding="iso-8859-1"?>
<!-- Generator: Adobe Illustrator 18.0.0, SVG Export Plug-In . SVG Version: 6.00 Build 0)  -->
<!DOCTYPE svg PUBLIC "-//W3C//DTD SVG 1.1//EN" "http://www.w3.org/Graphics/SVG/1.1/DTD/svg11.dtd">
<svg version="1.1" id="Capa_1" xmlns="http://www.w3.org/2000/svg" xmlns:xlink="http://www.w3.org/1999/xlink" x="0px" y="0px"
	 viewBox="0 0 496.917 496.917" style="enable-background:new 0 0 496.917 496.917;" xml:space="preserve">
<g>
	<g>
		<path d="M226.926,47.889c-8.072,0-17.493,3.187-25.847,8.743c-5.155,3.429-9.492,7.492-12.81,11.713
			c4.42,3.026,8.166,7.641,10.944,13.635c2.143,4.623,3.579,9.852,4.311,15.403c6.363-1.184,13.114-3.966,19.292-8.075
			c15.711-10.452,24.008-26.764,18.117-35.619C237.577,48.642,230.717,47.889,226.926,47.889z"/>
		<path d="M184.304,15.375c-0.433-0.055-0.874-0.083-1.311-0.083c-7.891,0-15.737,8.669-19.918,20.821
			c2.375,2.589,4.607,5.423,6.638,8.476c3.691,5.548,6.5,11.443,8.321,17.336c4.166-5.567,9.69-10.823,16.398-15.285
			c1.759-1.169,3.55-2.242,5.361-3.231c-0.169-6.383-1.41-12.347-3.714-17.317C194.385,22.434,190.6,16.177,184.304,15.375z"/>
		<path d="M158.685,125.947c-1.483-4.634-3.748-9.316-6.716-13.777c-7.944-11.944-19.596-19.969-28.992-19.969
			c-2.553,0-4.782,0.622-6.627,1.849c-8.855,5.89-7.508,24.141,2.943,39.854c1.963,2.951,4.162,5.636,6.488,8.04
			c4.171,1.416,8.35,3.623,12.355,6.494C142.878,137.541,150.253,129.389,158.685,125.947z"/>
		<path d="M144.343,172.084c-7.944-11.944-19.595-19.969-28.99-19.969c-2.553,0-4.782,0.622-6.627,1.849
			c-8.856,5.891-7.508,24.142,2.943,39.855c7.943,11.942,19.595,19.966,28.99,19.967c0.001,0,0.001,0,0.001,0
			c2.553,0,4.782-0.622,6.627-1.849c5.285-3.515,5.895-10.801,5.79-14.832C152.866,189.118,149.765,180.232,144.343,172.084z"/>
		<path d="M246.116,114.404c1.783,6.288,0.999,13.544-2.39,21.066c-0.217,0.481-0.447,0.961-0.684,1.44
			c0.655,4.074,1.82,8.253,3.504,12.381c6.858,16.815,18.874,25.613,27.2,25.613c1.456,0,2.841-0.264,4.117-0.784
			c9.849-4.017,12.149-22.172,5.024-39.645c-6.856-16.814-18.872-25.612-27.198-25.612c-1.456,0-2.841,0.264-4.116,0.784
			C249.164,110.63,247.407,112.394,246.116,114.404z"/>
		<path d="M181.588,218.9h0.002c8.071,0,17.491-3.187,25.846-8.744c8.149-5.421,14.444-12.417,17.726-19.701
			c1.655-3.676,3.909-10.633,0.394-15.917c-3.357-5.048-10.218-5.802-14.008-5.802c-8.072,0-17.493,3.187-25.847,8.743
			c-15.713,10.45-24.011,26.762-18.12,35.619C170.937,218.146,177.798,218.9,181.588,218.9z"/>
		<path d="M179.055,167.488c1.764-1.173,3.563-2.249,5.38-3.241c-0.174-6.38-1.431-12.338-3.733-17.306
			c-1.695-3.658-5.479-9.915-11.775-10.716c-0.434-0.055-0.875-0.083-1.312-0.083c-7.891,0-15.737,8.669-19.919,20.82
			c2.376,2.589,4.609,5.423,6.64,8.476c3.688,5.543,6.498,11.433,8.321,17.321C166.824,177.197,172.352,171.946,179.055,167.488z"/>
		<path d="M191.589,141.894c2.27,4.897,3.744,10.474,4.426,16.394c6.292-1.214,12.951-3.993,19.046-8.047
			c8.149-5.42,14.444-12.416,17.725-19.699c1.656-3.676,3.909-10.633,0.395-15.918c-3.357-5.048-10.218-5.801-14.009-5.801
			c-8.072,0-17.493,3.187-25.846,8.743c-4.862,3.234-9,7.031-12.238,10.992C185.317,131.587,188.902,136.1,191.589,141.894z"/>
		<path d="M170.284,122.901c4.165-5.581,9.672-10.855,16.395-15.326c1.757-1.169,3.548-2.241,5.358-3.229
			c-0.169-6.384-1.407-12.35-3.711-17.319c-1.695-3.658-5.48-9.915-11.776-10.716c-0.434-0.055-0.875-0.084-1.313-0.084
			c-7.89,0-15.728,8.677-19.909,20.828c2.373,2.587,4.604,5.419,6.632,8.469C165.659,111.084,168.464,116.994,170.284,122.901z"/>
		<path d="M130.732,31.266c-2.554,0-4.783,0.622-6.628,1.849c-8.855,5.891-7.507,24.141,2.943,39.854
			c2.439,3.668,5.235,6.942,8.203,9.742c3.553,1.402,7.093,3.362,10.506,5.809c4.816-11.064,12.349-19.301,20.944-22.648
			c-1.471-4.914-3.826-9.899-6.979-14.637C151.777,39.291,140.128,31.266,130.732,31.266z"/>
	</g>
	<g>
		<path d="M291.38,124.242c0.939,1.833,1.817,3.733,2.62,5.702c3.039,7.454,4.661,14.902,4.984,21.845
			c4.816-3.846,10.452-7.139,16.617-9.652c3.378-1.377,6.824-2.464,10.272-3.283c3.604-13.181,1.527-25.293-5.928-29.081
			c-1.522-0.773-3.238-1.165-5.102-1.165C307.16,108.608,298.222,114.758,291.38,124.242z"/>
		<path d="M318.742,70.404c0.938,1.831,1.814,3.729,2.616,5.694c2.966,7.272,4.62,14.77,4.934,21.906
			c4.83-3.869,10.474-7.189,16.667-9.714c3.382-1.379,6.834-2.467,10.286-3.286c1.423-5.204,1.965-10.327,1.539-15.021
			c-0.364-4.016-1.82-11.182-7.479-14.057c-1.522-0.773-3.238-1.165-5.102-1.165C334.519,54.762,325.584,60.92,318.742,70.404z"/>
		<path d="M342.095,42.767c-0.36-5.457-1.71-11.227-4.023-16.899c-6.855-16.815-18.872-25.612-27.198-25.612
			c-1.456,0-2.841,0.264-4.116,0.784c-9.849,4.016-12.15,22.17-5.027,39.645c3.046,7.467,7.112,13.315,11.418,17.546
			C321.7,48.655,332.241,42.81,342.095,42.767z"/>
		<path d="M381.055,30.247c1.425-5.205,1.981-10.33,1.555-15.024c-0.364-4.016-1.82-11.182-7.479-14.057
			C373.608,0.392,371.892,0,370.028,0c-7.686,0-16.622,6.155-23.463,15.64c0.938,1.831,1.815,3.731,2.617,5.697
			c2.964,7.267,4.63,14.761,4.946,21.892c4.826-3.865,10.469-7.177,16.656-9.699C374.162,32.152,377.608,31.065,381.055,30.247z"/>
		<path d="M334.948,189.587c17.474-7.126,28.844-21.465,24.828-31.313c-2.301-5.644-9.887-9.149-19.797-9.149
			c-6.367,0-13.23,1.426-19.848,4.124c-9.064,3.695-16.623,9.303-21.284,15.79c-2.354,3.274-5.942,9.645-3.546,15.521
			c2.302,5.645,9.888,9.151,19.8,9.151C321.469,193.711,328.331,192.285,334.948,189.587z"/>
		<path d="M387.136,104.428c-2.301-5.644-9.887-9.149-19.798-9.149c-6.367,0-13.23,1.426-19.848,4.124
			c-4.954,2.02-9.444,4.619-13.27,7.613c5.054,7.556,6.607,18.408,4.371,30.146c0.463-0.012,0.929-0.038,1.388-0.038
			c4.536,0,8.744,0.57,12.538,1.635c3.265-0.691,6.556-1.7,9.79-3.018C379.78,128.616,391.151,114.276,387.136,104.428z"/>
		<path d="M314.198,96.637c-0.442-5.192-1.764-10.643-3.951-16.008c-6.855-16.815-18.871-25.612-27.198-25.612
			c-1.456,0-2.841,0.264-4.116,0.784c-5.878,2.397-7.923,9.417-8.619,13.389c-1.379,7.868-0.103,17.192,3.592,26.255
			c3.003,7.363,6.997,13.163,11.235,17.38C293.652,102.987,304.246,96.891,314.198,96.637z"/>
		<path d="M414.96,49.667c-2.301-5.644-9.887-9.15-19.797-9.15c-6.368,0-13.23,1.426-19.848,4.125
			c-5.26,2.145-9.998,4.941-13.972,8.171c2.961,4.275,4.815,9.73,5.393,16.088c0.417,4.599,0.124,9.471-0.813,14.417
			c0.471-0.012,0.946-0.038,1.414-0.038c3.802,0,7.377,0.395,10.669,1.149c4.023-0.664,8.117-1.814,12.125-3.448
			C407.605,73.854,418.976,59.514,414.96,49.667z"/>
	</g>
	<g>
		<path d="M215.928,267.065c-7.102-17.415-19.572-26.527-28.22-26.527c-1.525,0-2.978,0.277-4.315,0.822
			c-6.145,2.505-8.276,9.813-9.001,13.947c-1.428,8.148-0.108,17.8,3.715,27.178c3.968,9.73,9.611,16.853,15.328,21.255
			c6.708,0.014,12.573,1.553,17.235,4.438C220.897,303.974,223.307,285.161,215.928,267.065z"/>
		<path d="M269.509,324.14c18.111-7.385,29.883-22.284,25.704-32.534c-2.402-5.892-10.291-9.552-20.589-9.552
			c-6.59,0-13.691,1.476-20.536,4.267c-9.379,3.824-17.202,9.629-22.029,16.346c-2.448,3.408-6.182,10.043-3.677,16.187
			c2.402,5.892,10.291,9.552,20.589,9.552C255.561,328.406,262.662,326.931,269.509,324.14z"/>
		<path d="M142.859,330.78c4.31-5.824,10.075-11.325,17.083-15.987c1.848-1.229,3.731-2.356,5.637-3.391
			c-0.415-15.465-6.953-28.018-16.162-29.19c-0.455-0.058-0.918-0.087-1.376-0.087c-8.233,0-16.419,9.042-20.751,21.701
			c2.471,2.685,4.793,5.627,6.903,8.8C138.057,318.434,140.988,324.612,142.859,330.78z"/>
		<path d="M133.238,345.171c-0.218-8.269-3.428-17.467-9.037-25.899c-8.226-12.366-20.301-20.674-30.05-20.674
			c-2.671,0-5.005,0.652-6.938,1.938c-5.525,3.675-6.164,11.261-6.054,15.457c0.218,8.268,3.427,17.466,9.036,25.898
			c8.226,12.366,20.303,20.674,30.051,20.675c0,0,0.001,0,0.002,0c2.669,0,5.002-0.652,6.936-1.939
			C132.709,356.952,133.349,349.366,133.238,345.171z"/>
		<path d="M207.553,338.398c1.724-3.826,4.066-11.07,0.392-16.594c-3.51-5.278-10.653-6.066-14.6-6.066
			c-8.36,0-18.113,3.298-26.757,9.047c-16.287,10.833-24.867,27.772-18.737,36.989c3.51,5.276,10.654,6.065,14.601,6.065
			c0.001,0,0.002,0,0.003,0c8.358,0,18.109-3.297,26.755-9.047C197.641,353.182,204.156,345.939,207.553,338.398z"/>
		<path d="M150.932,270.308c4.676,0.595,8.904,2.574,12.551,5.634c-1.807-7.871-2.144-15.671-0.911-22.706
			c1.671-9.535,6.028-16.808,12.423-20.953c0.054-0.645,0.102-1.276,0.151-1.914c-7.666-1.292-13.78-4.946-17.558-10.624
			c-0.116-0.175-0.217-0.356-0.327-0.533c-0.466,0.457-0.954,0.89-1.456,1.308c-0.237,3.683-0.518,7.497-0.854,11.459
			c-0.946,11.163-2.357,23.95-4.425,38.291C150.661,270.284,150.798,270.291,150.932,270.308z"/>
		<path d="M195.855,368.783c-3.773,2.509-7.687,4.611-11.646,6.295c-9.035,33.752-16.62,70.728-21.541,110.613
			c-0.676,5.482,3.219,10.473,8.7,11.149c0.416,0.051,0.828,0.076,1.237,0.076c4.977,0,9.287-3.711,9.912-8.776
			c6.018-48.775,16.11-93.091,27.956-132.293C206.433,360.634,201.483,365.039,195.855,368.783z"/>
		<path d="M137.859,368.419c-0.162-0.244-0.305-0.496-0.456-0.743c-1.088,1.089-2.274,2.079-3.573,2.942
			c-1.489,0.991-3.07,1.796-4.735,2.415c-8.391,31.406-19.27,66.27-33.377,104.413c-1.916,5.18,0.73,10.932,5.91,12.848
			c1.144,0.423,2.315,0.624,3.468,0.624c4.065,0,7.888-2.498,9.38-6.534c14.473-39.128,25.611-74.909,34.194-107.158
			C144.149,375.294,140.459,372.328,137.859,368.419z"/>
		<path d="M248.708,228.275c3.857,0,7.485,0.849,10.781,2.524c0.225,0.114,0.439,0.245,0.658,0.365
			c1.487-2.946,2.958-5.819,4.405-8.587c6.643-12.709,13.144-24.198,19.291-34.477c-0.361-1.026-0.667-2.066-0.88-3.125
			c-0.19,0.084-0.375,0.178-0.569,0.257c-2.722,1.109-5.631,1.672-8.648,1.672c-3.689,0-7.412-0.822-11.048-2.36
			c-5.012,8.614-10.22,17.981-15.532,28.119c-2.898,5.531-5.88,11.415-8.914,17.612C241.749,228.976,245.27,228.275,248.708,228.275
			z"/>
		<path d="M254.054,241.497c-1.596-0.811-3.395-1.222-5.346-1.222c-8.007,0-17.318,6.408-24.42,16.286
			c0.987,1.919,1.909,3.909,2.751,5.973c3.18,7.799,4.848,15.59,5.139,22.831c5.016-4.054,10.915-7.52,17.38-10.156
			c3.511-1.432,7.094-2.558,10.677-3.402c1.496-5.425,2.078-10.77,1.634-15.665C261.488,251.963,259.969,244.502,254.054,241.497z"
			/>
	</g>
</g>
<g>
</g>
<g>
</g>
<g>
</g>
<g>
</g>
<g>
</g>
<g>
</g>
<g>
</g>
<g>
</g>
<g>
</g>
<g>
</g>
<g>
</g>
<g>
</g>
<g>
</g>
<g>
</g>
<g>
</g>
</svg>
