<?xml version="1.0" encoding="iso-8859-1"?>
<!-- Generator: Adobe Illustrator 19.0.0, SVG Export Plug-In . SVG Version: 6.00 Build 0)  -->
<svg version="1.1" id="Capa_1" xmlns="http://www.w3.org/2000/svg" xmlns:xlink="http://www.w3.org/1999/xlink" x="0px" y="0px"
	 viewBox="0 0 511.996 511.996" style="enable-background:new 0 0 511.996 511.996;" xml:space="preserve">
<g>
	<g>
		<path d="M290.793,50.324c-3.178-2.655-7.908-2.231-10.564,0.946c-9.566,11.448-19.051,24.143-28.33,37.91
			c-5.197-35.396-17.848-62.371-18.488-63.72c-3.654-7.687-12.29-11.736-20.539-9.628c-17.337,4.436-32.738,14.746-43.989,24.174
			c-19.866-23.194-52.644-37.032-77.73-39.285c-6.731-0.604-13.144,2.578-16.73,8.313C56.964,36.969,56.391,67.423,58.796,87.517
			c-20.43-1.247-36.27,2.103-37.024,2.267c-9.801,2.106-15.957,11.91-13.588,21.661c5.805,23.864,13.239,35.48,14.359,38.024
			c1.879,3.698,6.399,5.162,10.085,3.288c3.693-1.876,5.165-6.391,3.289-10.085c-0.91-2.155-7.844-12.923-13.156-34.771
			c-0.373-1.531,0.575-3.111,2.172-3.454c0.779-0.169,19.339-4.091,41.754-1.109c5.064,0.67,9.312-3.811,8.358-8.835
			c-3.864-20.348-4.902-50.315,12.1-77.518c0.57-0.913,1.583-1.427,2.666-1.324c24.026,2.151,54.875,15.774,71.99,39.585
			c2.63,3.657,7.872,4.187,11.182,1.13c10.139-9.372,25.935-21.491,43.608-26.013c1.313-0.335,2.69,0.31,3.272,1.533
			c0.712,1.5,17.463,37.223,19.109,79.803c0.284,7.37,9.985,9.935,13.87,3.66c12.598-20.331,25.685-38.658,38.898-54.472
			C294.395,57.71,293.971,52.981,290.793,50.324z"/>
	</g>
</g>
<g>
	<g>
		<path d="M464.314,335.438c9.428-11.253,19.737-26.656,24.172-43.991c2.109-8.245-1.939-16.883-9.627-20.537
			c-1.345-0.64-28.299-13.296-63.729-18.491c29.781-20.091,64.054-47.563,85.984-79.028c6.014-8.625,3.282-20.561-5.831-25.723
			c-0.639-0.363-13.851-7.794-33.36-14.106c13.772-21.471,30.559-57.544,26.087-101.314c-0.854-8.38-7.558-15.083-15.938-15.938
			c-43.763-4.474-79.844,12.314-101.313,26.087c-6.32-19.543-13.747-32.727-14.107-33.362c-5.179-9.124-17.102-11.836-25.722-5.831
			c-16.853,11.749-23.874,20.053-26.125,22.118c-2.941,2.917-2.961,7.667-0.044,10.607c2.918,2.941,7.667,2.96,10.607,0.044
			l6.897-6.841c5.755-5.075,11.555-9.657,17.24-13.621c1.374-0.958,3.272-0.527,4.1,0.931c0.383,0.674,9.448,16.77,15.635,39.895
			c0.639,2.388,2.413,4.308,4.744,5.132c2.33,0.824,4.917,0.448,6.915-1.007c17.728-12.907,54.249-33.87,99.647-29.228
			c1.335,0.136,2.401,1.203,2.538,2.538c4.637,45.396-16.321,81.918-29.228,99.648c-1.455,1.999-1.831,4.585-1.007,6.916
			c0.824,2.33,2.744,4.104,5.132,4.743c23.075,6.172,39.221,15.253,39.901,15.639c1.444,0.818,1.881,2.718,0.922,4.093
			c-25.142,36.074-68.175,67.041-99.85,86.667c-2.803,1.737-4.143,5.101-3.302,8.291c0.842,3.188,3.667,5.453,6.962,5.58
			c42.625,1.648,78.302,18.397,79.8,19.108c1.225,0.583,1.871,1.959,1.535,3.272c-4.521,17.671-16.641,33.469-26.013,43.611
			c-1.458,1.578-2.169,3.706-1.953,5.845c0.535,5.295,3.988,4.714,13.276,14.006c25.731,25.729,29.257,61.8,29.395,63.319
			c0.096,1.072-0.412,2.093-1.326,2.664c-27.202,17.002-57.17,15.966-77.517,12.1c-5.012-0.956-9.509,3.287-8.835,8.357
			c2.976,22.369-0.943,40.982-1.111,41.764c-0.332,1.545-1.878,2.541-3.45,2.164c-10.452-2.543-21.076-6.292-31.579-11.143
			c-3.763-1.735-8.219-0.096-9.955,3.665c-1.736,3.761-0.095,8.218,3.665,9.955c11.383,5.255,22.93,9.326,34.326,12.099
			c9.743,2.365,19.547-3.78,21.657-13.583c0.165-0.766,3.508-16.635,2.267-37.03c20.093,2.405,50.549,1.831,78.482-15.627
			c5.734-3.584,8.921-9.994,8.315-16.73C501.313,387.804,487.321,355.149,464.314,335.438z"/>
	</g>
</g>
<g>
	<g>
		<path d="M386.425,356.145c-2.374-1.255-34.607-18.107-78.428-31.752l19.386-16.209c3.178-2.657,3.601-7.387,0.943-10.565
			c-2.658-3.177-7.388-3.599-10.565-0.943l-27.118,22.674c-27.021-7.273-57.167-12.641-86.855-12.426
			c24.37-24.175,50.263-48.709,78.446-74.194c47.608,2.215,45.497,2.127,45.829,2.127c3.981,0,7.299-3.132,7.486-7.151
			c0.192-4.138-3.006-7.648-7.144-7.841l-30.253-1.41c51.619-45.91,88.941-75.444,89.414-75.818
			c3.251-2.566,3.807-7.282,1.24-10.535c-2.565-3.252-7.282-3.807-10.534-1.241c-0.309,0.244-16.286,12.886-41.684,34.379
			l-1.539-19.514c-0.325-4.129-3.94-7.222-8.067-6.887c-4.129,0.325-7.213,3.937-6.887,8.066
			c2.449,29.816,2.023,28.406,2.644,30.141c-18.348,15.755-40.174,34.941-63.806,56.614l-2.051-24.127
			c-0.351-4.128-3.996-7.184-8.109-6.838c-4.127,0.351-7.188,3.981-6.837,8.109l3.04,35.754
			c-15.992,14.892-31.859,30.079-47.671,45.682c-0.721-26.977-5.749-54.056-12.346-78.566l22.678-27.123
			c2.657-3.178,2.234-7.909-0.943-10.566c-3.178-2.657-7.908-2.236-10.565,0.943l-16.213,19.39
			c-13.643-43.821-30.492-76.057-31.748-78.431c-1.937-3.661-6.471-5.059-10.136-3.124c-3.661,1.936-5.061,6.473-3.126,10.136
			c0.399,0.754,29.75,56.962,42.101,121.563l-19.75-10.817c-3.633-1.99-8.19-0.657-10.182,2.976
			c-1.989,3.633-0.657,8.192,2.976,10.182c29.76,16.216,28.385,15.737,29.972,16.203c1.863,14.061,2.744,28.299,2.206,42.26
			c-5.743,5.783-11.533,11.675-17.353,17.683c-10.222-4.396-29.691-11.924-52.427-16.462c-4.062-0.815-8.011,1.825-8.823,5.887
			c-0.811,4.062,1.824,8.013,5.887,8.823c17.89,3.571,33.87,9.229,44.202,13.381c-11.884,12.48-23.807,25.353-35.579,38.511
			c-86.095-7.937-81.857-6.706-83.27-8.122c-1.21-1.214-1.097-3.266,0.366-4.325c5.137-3.739,15.789-16.588,21.437-31.498
			c10.456-27.606,5.613-58.153-14.393-90.795c-0.51-0.831-0.56-1.85-0.135-2.725c1.291-2.648,1.524-1.017,45.894-6.669
			c6.307-0.735,8.907-8.525,4.288-12.897c-14.371-13.606-27.939-29.034-39.339-45.498c-2.357-3.405-7.031-4.254-10.437-1.896
			c-3.405,2.358-4.255,7.03-1.896,10.437c8.738,12.618,18.876,24.958,30.191,36.754l-28.209,3.286
			c-12.957,1.512-19.95,15.948-13.147,27.047c17.455,28.479,21.88,54.601,13.154,77.642c-5.431,14.339-14.317,22.916-16.545,24.911
			c-13.054,9.943-6.819,30.577,9.216,32.011l70.482,6.295c-31.532,36.149-61.391,74.056-85.553,111.372
			c-3.254,5.024,0.422,11.578,6.288,11.578c10.674,0,6.458-16.32,88.942-111.219l6.094,68.224
			c1.434,16.094,21.785,22.035,31.686,9.585c1.48-1.82,37.014-44.129,102.877-3.759c11.1,6.804,25.54-0.194,27.047-13.147
			l3.287-28.209c12.969,12.443,26.553,23.428,40.453,32.71c3.446,2.301,8.104,1.372,10.403-2.072
			c2.299-3.441,1.371-8.098-2.074-10.399c-17.764-11.862-34.358-26.272-48.987-41.717c-4.364-4.611-12.16-2.026-12.896,4.289
			c-5.755,45.175-4.111,44.649-6.665,45.892c-0.877,0.427-1.897,0.376-2.73-0.133c-76.93-47.151-120.536,4.849-122.406,7.148
			c-0.727,0.913-1.926,1.284-3.04,0.953c-3.516-1.055-1.158-0.736-9.374-84.869c12.094-13.522,24.356-26.748,36.572-39.552
			c4.129,9.68,11.203,28.064,15.397,49.077c0.712,3.567,3.844,6.033,7.347,6.033c4.753,0,8.287-4.344,7.362-8.97
			c-5.551-27.812-15.576-50.74-18.87-57.824c3.802-3.916,7.589-7.78,11.361-11.602c3.489,0.461,18.833-2.407,50.981,1.853
			c0.15,0.51,0.352,1.012,0.617,1.498l15.595,28.475c1.363,2.49,3.934,3.898,6.585,3.898c5.631,0,9.326-6.075,6.571-11.105
			l-10.816-19.748c64.6,12.352,120.808,41.699,121.562,42.098c1.117,0.59,2.315,0.87,3.497,0.87
			C390.707,370.277,393.318,359.793,386.425,356.145z"/>
	</g>
</g>
<g>
</g>
<g>
</g>
<g>
</g>
<g>
</g>
<g>
</g>
<g>
</g>
<g>
</g>
<g>
</g>
<g>
</g>
<g>
</g>
<g>
</g>
<g>
</g>
<g>
</g>
<g>
</g>
<g>
</g>
</svg>
